<?xml version="1.0" encoding="iso-8859-1"?>
<!-- Generator: Adobe Illustrator 21.1.0, SVG Export Plug-In . SVG Version: 6.00 Build 0)  -->
<svg version="1.1" id="Layer_1" xmlns="http://www.w3.org/2000/svg" xmlns:xlink="http://www.w3.org/1999/xlink" x="0px" y="0px"
	 viewBox="0 0 344.692 132.211" style="enable-background:new 0 0 344.692 132.211;" xml:space="preserve">
<g id="Layer_1_1_" style="display:none;">
	<rect x="-71.333" y="-34.237" style="display:inline;fill:#DADADA;" width="520.218" height="207.104"/>
</g>
<g id="Calque_1">
	<path d="M0,0v132.211h344.692V0H0z M337.88,6.813c0,6.268,0,112.316,0,118.585c-6.609,0-324.458,0-331.066,0
		c0-6.269,0-112.317,0-118.585C13.423,6.813,331.271,6.813,337.88,6.813z"/>
	<g>
		<path d="M141.572,53.865h-0.028c-0.142-1.376-1.293-2.455-2.708-2.462v-0.026h-6.553v17.064l6.553-0.76
			c1.635-0.221,2.73-1.252,2.736-2.76L141.572,53.865L141.572,53.865z"/>
		<path d="M190.699,98.726c-1.543,0-1.798,1.344-1.798,4.811c0,3.486,0.255,4.812,1.798,4.812c1.544,0,1.798-1.325,1.798-4.812
			C192.497,100.07,192.243,98.726,190.699,98.726z"/>
		<path d="M138.836,43.428c1.509-0.005,2.73-1.226,2.736-2.731v-8.116h-0.028c-0.142-1.382-1.289-2.46-2.708-2.465V30.09h-6.553
			v13.365h6.553V43.428z"/>
		<path d="M200.358,98.98h-1.09v3.94h1.162c1.035,0,1.743-0.617,1.743-1.943C202.173,99.707,201.665,98.98,200.358,98.98z"/>
		<path d="M180.314,98.98h-1.235v3.74h1.09c1.253,0,1.961-0.544,1.961-1.942C182.129,99.58,181.494,98.98,180.314,98.98z"/>
		<polygon points="133.598,99.307 132.345,105.136 134.887,105.136 133.634,99.307 		"/>
		<path d="M170.552,43.428c1.508-0.005,2.729-1.226,2.735-2.731v-8.116h-0.026c-0.143-1.382-1.294-2.46-2.709-2.465V30.09h-6.553
			v13.365h6.553V43.428z"/>
		<path d="M9.899,10.898v110.914h323.395V10.898H9.899z M187.441,22.095h19.695v7.992h-11.94v13.391h7.988v7.66h-7.988v14.101
			l11.938,0.797v8.256c-6.461-0.583-13.032-0.965-19.692-1.139V22.095H187.441z M124.361,22.095c0,0,14.187,0,16.21,0
			c0.082,0,0.18,0.004,0.277,0.012c4.381,0.15,7.897,3.72,7.936,8.13h0.001v9.759h-0.001c-0.026,3.283-1.982,6.1-4.783,7.392
			c2.817,1.3,4.778,4.135,4.784,7.439v12.541h-0.004c0,0.041,0.004,0.074,0.004,0.114c0,4.325-3.341,7.567-7.579,7.89
			c-11.046,1.419-16.844,2.576-16.844,2.576V22.095H124.361z M36.933,112.656c-1.354,0.961-2.686,1.935-3.989,2.921L18.827,22.132
			h8.135l8.27,54.501l9.11-54.501h7.961L36.933,112.656z M65.762,96.145c-2.729,1.261-5.408,2.564-8.013,3.911V22.095h8.013V96.145z
			 M93.509,85.537c-6.85,2.135-13.448,4.517-19.767,7.125V22.095h8.001v58.79c0,0,5.372-2.021,11.766-3.87V85.537z M117.398,79.336
			c-6.775,1.43-13.374,3.086-19.764,4.957V22.095h19.761v7.972h-11.903v16.739l8.342-0.252v8.025l-8.342,0.727v18.438
			c0,0,6.792-1.647,11.906-2.705V79.336z M123.666,110.274c-2.96,0-4.122-1.38-4.122-3.776v-0.526h2.615v0.381
			c0,1.217,0.345,1.997,1.725,1.997c0.799,0,1.562-0.508,1.562-1.598c0-1.18-0.599-1.616-2.324-2.215
			c-2.324-0.799-3.396-1.762-3.396-3.923c0-2.523,1.544-3.812,4.013-3.812c2.324,0,4.013,0.998,4.013,3.486v0.363h-2.506
			c0-1.217-0.417-1.925-1.416-1.925c-1.18,0-1.489,0.744-1.489,1.507c0,0.799,0.236,1.289,1.344,1.762l2.016,0.871
			c1.961,0.854,2.469,1.853,2.469,3.432C128.169,109.04,126.499,110.274,123.666,110.274z M135.94,110.02l-0.599-2.742h-3.45
			l-0.599,2.742h-2.724L132,97.055h3.232l3.432,12.965H135.94z M142.313,110.02h-2.615V97.055h2.615V110.02z M152.862,110.02h-2.978
			l-3.195-9.079h-0.037v9.079h-2.397V97.055h3.015l3.159,8.879h0.036v-8.879h2.397L152.862,110.02L152.862,110.02z M162.267,99.198
			h-2.833v10.822h-2.614V99.198h-2.833v-2.143h8.28L162.267,99.198L162.267,99.198z M163.999,73.404
			c-2.659,0.129-5.297,0.291-7.924,0.484V22.095c0,0,14.183,0,16.204,0c0.086,0,0.181,0.004,0.281,0.012
			c4.382,0.15,7.894,3.72,7.935,8.13h0.002v9.759h-0.002c-0.026,3.283-1.977,6.1-4.783,7.392c2.818,1.3,4.779,4.135,4.785,7.439
			v12.541h-0.006c0,0.027,0.004,3.406,0.006,5.677c-0.447-0.001-0.892-0.012-1.339-0.012c-1.966,0-3.923,0.028-5.871,0.067V53.729
			h-0.026c-0.143-1.377-1.294-2.458-2.709-2.464V51.24h-6.553V73.404z M175.339,99.198h-2.833v10.822h-2.614V99.198h-2.833v-2.143
			h8.28L175.339,99.198L175.339,99.198z M185.252,110.02h-2.833c-0.254-0.363-0.309-0.853-0.326-1.362l-0.073-2.487
			c-0.036-1.017-0.49-1.634-1.543-1.634h-1.398v5.483h-2.614V97.055h4.83c2.143,0,3.449,1.126,3.449,3.341
			c0,1.726-0.689,2.888-2.16,3.196v0.036c1.779,0.236,2.052,1.217,2.088,3.958c0.018,1.362,0.091,2.07,0.581,2.324v0.11H185.252z
			 M190.699,110.274c-3.922,0-4.412-2.796-4.412-6.736c0-3.94,0.49-6.736,4.412-6.736s4.412,2.796,4.412,6.736
			S194.621,110.274,190.699,110.274z M200.666,104.846h-1.398v5.175h-2.614V97.056h4.575c2.651,0,3.559,1.943,3.559,3.886
			C204.788,103.629,203.136,104.846,200.666,104.846z M213.503,110.02h-7.427V97.055h7.245v2.143h-4.631v3.051h4.358v2.143h-4.358
			v3.486h4.812v2.142H213.503z M222.2,110.02h-7.862v-1.906l4.775-8.916h-4.448v-2.143h7.463v1.979l-4.849,8.843h4.921V110.02z
			 M238.166,69.304l-0.004,0.354c0.001,0.013,0.004,0.028,0.004,0.042c0,4.538-3.681,7.582-8.22,7.582l-0.805-0.123v0.055
			c0.052,1.248,0.176,3.119,2.294,3.119v6.607l-1.411-0.156l-0.867-0.134c-3.921-0.565-6.956-3.421-6.956-7.362
			c0-0.011,0.001,0.012,0.001,0l0-3.208l-0.242-0.039l-0.995-0.152c-4.501-0.65-7.986-3.928-7.986-8.454
			c0-0.013,0.001,0.015,0.001,0l-0.001-0.351V30.255c0.005-4.523,3.662-8.189,8.182-8.209v-0.002h8.787
			c4.52,0,8.184,3.648,8.216,8.16h0.004v39.1H238.166z M269.875,76.71c0,4.536-3.679,7.929-8.215,7.929l-9.232-2.512
			c-4.552-1.107-7.719-4.594-7.719-9.114v-0.356l-0.016-0.805V21.954h7.956v50.017l0.011-0.418c0.056,1.46,1.226,2.457,2.724,2.779
			l3.574,0.943v-0.004c0.017,0,0.031,0.004,0.043,0.004c1.512,0,2.737-1.223,2.742-2.734h0.002V21.954h6.121l2.009,0.005
			L269.875,76.71L269.875,76.71z M284.747,92.732c-2.643-1.092-5.335-2.148-8.075-3.162v-67.5h8.075V92.732z M324.367,114.826
			c-3.215-2.4-6.585-4.719-10.115-6.951l-14.583-55.268v0.108l-0.034-0.122V99.58c-2.613-1.331-5.287-2.619-8.018-3.865v-73.62
			h8.018l0.034,0.105v0.032l16.69,62.575V22.096h8.008V114.826z"/>
		<path d="M227.288,29.968c-0.037,0-0.07,0.011-0.108,0.011v-0.011h-3.543v0.008c-1.454,0.027-2.625,1.183-2.682,2.63h-0.019v31.78
			l0.011,0.667c0.057,1.433,1.296,2.599,2.633,2.785l3.722,0.528c1.508-0.008,2.726-1.228,2.729-2.733h0.002V32.661h-0.006
			C229.999,31.17,228.787,29.968,227.288,29.968z"/>
	</g>
	<rect x="162.303" y="102.584" width="4.683" height="2.441"/>
</g>
</svg>
