<?xml version="1.0" encoding="utf-8"?>
<!-- Generator: Adobe Illustrator 24.1.0, SVG Export Plug-In . SVG Version: 6.00 Build 0)  -->
<svg version="1.1" id="Laag_1" xmlns="http://www.w3.org/2000/svg" xmlns:xlink="http://www.w3.org/1999/xlink" x="0px" y="0px"
	 viewBox="0 0 1190.6 1053.1" style="enable-background:new 0 0 1190.6 1053.1;" xml:space="preserve">
<style type="text/css">
	.st0{display:none;}
	.st1{display:inline;}
</style>
<g class="st0">
	<path class="st1" d="M1000.5,926.8c-4.9-12-8.8-27.2-12.4-41l0,0L839.7,326.1h-44.4l-97.4,368h-58.5l0.4-1.7l43.3-164.8l95.6-360
		c0,0,5.9-19.7,9.3-28c10.8-24.2,16.2-31.4,43.1-31.4V85.2H695.4v23.2c15.3-0.9,34.1,3.6,34.1,22.4c0,5.3-3.8,22.7-9.5,45.7
		c0.3-0.1-15.7,56.1-18.5,66.8l-66.6,251.5l-84.1-315.9c-6.1-24.1-10.2-42.5-10.2-47.7c0-18.8,16.9-23.3,32.2-22.4V85.5H347.7
		L196.3,657.6c0,0-5.9,19.7-9.4,28c-10.8,24.2-16.2,31.4-43.1,31.4l0,23.1h135.8v-23.2c-15.3,0.9-34.1-3.6-34.1-22.4
		c0-5.3,3.8-22.7,9.5-45.7c-0.3,0.1,39.6-148.1,44.2-165.3h133.8l43.7,163.3c6.1,24.1,10.2,42.5,10.2,47.7
		c0,18.8-16.9,23.3-32.2,22.4v23.2h115.8l-42,158.6c0,0-5.9,19.7-9.3,28C508.3,951,503,958.2,476,958.2l0,23.1h120.2l0,0H727v-23.2
		c-15.3,0.9-34.1-3.6-34.1-22.4c0-5.3,3.8-22.7,9.5-45.7c-0.3,0.1,28.8-108.2,40.2-150.4h141.8L924,888
		c6.1,24.1,10.2,42.5,10.2,47.7c0,18.8-16.9,23.3-32.2,22.4v23.2h141.5v-23.1C1016.7,958.2,1011.3,951,1000.5,926.8z M366,231
		l56,211.4H310L366,231z M547.6,662.8c-4.9-12-8.8-27.2-12.4-41l0,0L404.4,130.5h33.2c26.9,0,32.3,7.2,43.1,31.4
		c4.7,11.4,10,31.8,13.6,45.7l108.4,410.6l-20,75.7C562.5,692.4,557.2,684.4,547.6,662.8z M643.7,898.7c0,0-5.9,19.7-9.3,28
		c-10.2,23-10.6,30.6-34,31.3c-13.7-0.6-22.7-6.2-22.7-22.5c0-5.3,3.8-22.7,9.5-45.7c-0.3,0.1,28.8-108.2,40.2-150.4h58.5
		L643.7,898.7z M754.2,694.2l59.3-222l58.7,222H754.2z"/>
</g>
<g>
	<path d="M0,724.4c8-0.1,16-0.1,24-0.2c1.3,0,2.2,0.5,2.8,1.7c0.7,1.4,1.6,2.7,2.3,4.1c13.2,23.1,26.3,46.2,39.5,69.3
		c0.7,1.2,1.5,2.5,2.2,3.6c0.3-0.1,0.4-0.1,0.5-0.1c0.1-0.1,0.2-0.2,0.2-0.3c0.1-0.2,0.1-0.5,0.1-0.8c0.1-25.6,0.1-51.1,0.2-76.7
		c0-0.1,0.1-0.2,0.6-0.9c6.7-0.1,13.9,0,20.9,0c0.9,3,1.3,107.8,0.4,114.8c-0.9,0.1-1.9,0.3-2.9,0.3c-5.9,0-11.8-0.1-17.7,0.1
		c-2.4,0.1-3.7-0.9-4.9-2.9c-12-21.1-24.1-42.1-36.1-63.1c-2.3-4-4.6-8-6.9-11.9c-0.5-0.8-1.1-1.6-2.3-2.2c0,26.5,0,53,0,80.1
		c-7.9,0-15.5,0-23,0C0,801,0,762.7,0,724.4z"/>
	<path d="M1190.6,839.3c-7.4,0-14.9,0-22.7,0c0-1.8,0-3.2,0-4.6c0-16.1,0-32.2,0-48.4c0-2.5-0.2-5-0.9-7.4c-1.2-4.3-4.2-6.8-8.7-7.5
		c-9.5-1.6-16.3,3.4-17.3,13c-0.3,2.3-0.3,4.7-0.3,7.1c0,14.3,0,28.6,0,42.9c0,1.5,0,3.1,0,4.7c-7.7,0-14.8,0-22.4,0
		c0-1.6,0-3,0-4.4c0-15.3,0-30.7,0-46c0-3-0.3-6-0.9-9c-0.9-4.4-3.8-7.3-8.2-7.9c-2.8-0.4-5.8-0.3-8.6,0.2c-5.2,1-8.2,4.4-9.1,9.6
		c-0.4,2.6-0.6,5.2-0.6,7.8c-0.1,14.9,0,29.9,0,44.8c0,1.5,0,3.1,0,4.9c-7.5,0-14.7,0-22.1,0c0-28.1,0-56.1,0-84.1
		c2.7-0.8,15.4-1,21.1-0.2c0,3.5,0,7,0,10.6c0.2,0.1,0.5,0.1,0.7,0.2c0.6-0.8,1.3-1.5,1.9-2.3c5.6-8.2,13.6-11.1,23.1-10.9
		c2,0,3.9,0.3,5.9,0.6c6.1,1.1,10.9,4.2,14.2,9.6c0.7,1.1,1.3,2.3,2.3,3.9c1-1.3,1.8-2.4,2.6-3.5c10-12.8,31.1-14.5,42.3-3.4
		c4.2,4.1,6.8,8.9,7,14.9c0,0.9,0.5,1.7,0.7,2.6C1190.6,797.9,1190.6,818.6,1190.6,839.3z"/>
	<path d="M620.1,966c-0.4-0.2-0.9-0.6-1.3-0.7c-10.6-2.5-16.9-9.5-19.9-19.6c-2.4-8.2-2.4-16.6-0.1-24.8
		c3.3-12.3,12.4-19.9,25.2-20.6c4-0.2,8.2,0,12.1,0.9c10.3,2.4,16.5,9.3,19.4,19.2c2.4,8.2,2.5,16.6,0.2,24.8
		c-2.9,10.3-9.1,17.6-19.9,20.2c-0.5,0.1-0.9,0.5-1.3,0.7C629.5,966,624.8,966,620.1,966z M644.5,933c-0.8-3.9-1.2-7.9-2.5-11.5
		c-2.4-6.9-8-10.6-15-10.6c-7,0-12.6,3.7-15.1,10.4c-2.9,7.8-2.9,15.7,0,23.4c2.6,6.8,8,10.3,15.1,10.3c7.1,0,12.6-3.6,14.9-10.5
		C643.3,940.9,643.7,936.9,644.5,933z"/>
	<path d="M908.8,966c-0.3-0.2-0.7-0.5-1-0.6c-12.3-2.6-18.7-10.8-21.4-22.4c-1.7-7.2-1.5-14.6,0.4-21.8
		c3.2-12.5,12.7-20.4,25.6-21.1c3.8-0.2,7.6,0,11.3,0.8c9.2,1.9,15.5,7.7,18.7,16.3c4,10.4,4,21.1,0,31.5
		c-3.3,8.6-9.4,14.4-18.6,16.5c-0.6,0.1-1.2,0.5-1.7,0.8C917.8,966,913.3,966,908.8,966z M897.8,933.1c0.1,0,0.3,0.1,0.4,0.1
		c0.2,2.2,0.2,4.4,0.6,6.6c0.3,1.7,0.8,3.3,1.4,4.9c2.6,6.7,8,10.4,15.1,10.4c7.1,0,12.5-3.6,15-10.4c2.8-7.6,2.8-15.4,0-23
		c-2.5-6.9-8-10.6-14.9-10.7c-7.1,0-12.9,3.8-15.3,10.7C899,925.3,898.6,929.2,897.8,933.1z"/>
	<path d="M558.7,966c-2-0.6-4-1.1-6-1.7c-7.8-2.7-12.9-7.7-14.2-16.2c-0.1-0.7,0-1.5,0-2.5c4.1,0,8,0,11.8,0
		c0.2,0.3,0.4,0.5,0.5,0.7c1.3,6.5,5.9,9,12,9.1c3.2,0,6.5-0.5,9.7-1.2c2.2-0.5,3.9-2.1,4.7-4.3c1.3-3.3,0.3-6.4-3.1-7.9
		c-2.7-1.2-5.7-2-8.6-2.7c-4.7-1.3-9.4-2.2-14.1-3.5c-6.9-2-11.3-6.4-11.9-13.9c-0.6-7.7,2-14,8.7-18c5.8-3.6,12.4-4.1,19-3.5
		c5,0.5,9.7,2.1,13.8,5.3c4.6,3.6,6.9,8.4,6.9,14.6c-4.1,0-7.9,0-12,0c-0.2-0.6-0.4-1.2-0.6-1.8c-0.4-1-0.7-2-1.3-2.9
		c-3.7-5.5-16.4-6.4-20.9-1.4c-3,3.3-2.2,8.1,1.9,9.8c2.7,1.2,5.7,1.9,8.6,2.6c3.5,0.9,7.1,1.7,10.7,2.5c1.4,0.3,2.8,0.7,4.1,1.2
		c12.4,4.5,15.7,19.1,6.5,28.6c-3,3.1-6.7,4.9-10.8,6.1c-1,0.3-1.9,0.7-2.9,1C567.1,966,562.9,966,558.7,966z"/>
	<path d="M205.4,966c-1.8-0.6-3.7-1.1-5.5-1.7c-6.8-2.4-11.9-6.6-13.7-13.9c-0.4-1.5-0.3-3-0.5-4.8c4.3,0,8.1,0,12.1,0
		c0.3,1,0.6,1.8,0.8,2.7c1,3.3,3.2,5.4,6.4,6.3c4.8,1.4,9.6,1.3,14.3-0.2c1.1-0.4,2.2-1,3.1-1.7c3.8-3.2,3.2-8.6-1.2-10.7
		c-2.6-1.2-5.4-1.9-8.2-2.6c-3.4-0.9-6.9-1.6-10.3-2.4c-1.6-0.4-3.3-0.9-4.9-1.5c-8.7-3.2-12.6-10.1-10.9-19.2
		c1.3-6.7,5.2-11.5,11.5-13.9c8-3,16.2-3.2,24.2,0.1c6.6,2.7,11.1,7.3,12.4,14.6c0.2,1,0.1,2,0.2,3.2c-4.1,0-8,0-12.2,0
		c-0.6-3.9-2.5-6.9-6.4-8.2c-4.8-1.6-9.5-1.7-14.2,0.5c-2.6,1.3-4,3.5-3.9,6.3c0.1,3,2,4.8,4.7,5.6c4.9,1.4,9.9,2.6,14.8,3.9
		c2.7,0.7,5.4,1.3,7.9,2.2c11.3,4.2,14.9,17.4,7.4,27c-3.1,4-7.3,6.2-12.1,7.5c-1.1,0.3-2.2,0.7-3.4,1
		C213.8,966,209.6,966,205.4,966z"/>
	<path d="M500.5,966c-2.1-0.6-4.3-1.2-6.3-1.9c-8.8-3.1-13.5-9.5-13.5-18.6c3.8-0.3,7.7-0.2,11.6-0.1c0.3,0.7,0.7,1.3,0.8,1.9
		c1.1,4.9,4.4,7.3,9.2,7.8c3.1,0.3,6.3,0.2,9.4-0.1c1.6-0.2,3.3-0.9,4.7-1.8c3.8-2.1,5-9.2-0.6-11.4c-2.8-1.1-5.7-1.8-8.6-2.6
		c-5.5-1.6-11.2-2.8-16.6-4.7c-5.3-1.8-8.2-6-8.9-11.5c-1.5-10.6,3.9-18.9,14.3-21.7c8.4-2.2,16.6-1.9,24.4,2.5
		c6.2,3.5,9.3,8.9,9.6,16.3c-4,0-7.9,0-11.8,0c-0.1-0.1-0.4-0.3-0.4-0.5c-0.9-3.9-3-6.7-6.9-7.8c-4.9-1.4-9.9-1.6-14.4,1.2
		c-2.2,1.3-3.2,3.4-3.1,6c0.2,2.7,1.8,4.5,4.2,5.2c5.1,1.5,10.4,2.7,15.6,4.1c2.7,0.7,5.4,1.3,7.9,2.3c11.2,4.2,14.8,17.2,7.4,26.8
		c-3.2,4.1-7.5,6.5-12.4,7.7c-1,0.3-1.9,0.6-2.9,1C508.8,966,504.7,966,500.5,966z"/>
	<path d="M265.2,966c-1-0.3-1.9-0.8-2.9-1c-8.9-2.4-14-8.3-15.2-17.5c-0.3-2.3-0.5-4.7-0.6-7.1c-0.1-11.7,0-23.3,0-35
		c0-1,0.2-2,0.3-3.3c4.2,0,8.3,0,12.7,0c0.1,1.5,0.2,2.8,0.2,4.2c0,11.1,0,22.3,0,33.4c0,2.3,0.2,4.7,0.7,7c0.9,4.7,3.7,7.3,8.5,8
		c1.4,0.2,2.9,0.2,4.3,0.1c5.7-0.4,9-3.2,9.9-8.8c0.4-2.2,0.4-4.4,0.4-6.7c0-10.9,0-21.8,0-32.6c0-1.4,0-2.8,0-4.6
		c4.5,0,8.6,0,12.9,0c0.1,1.1,0.3,2.1,0.3,3.1c0,12.1,0.1,24.1,0,36.2c0,2.7-0.3,5.5-0.9,8.2c-1.5,7.6-6.1,12.6-13.6,14.8
		c-1.5,0.4-3,0.9-4.4,1.4C273.6,966,269.4,966,265.2,966z"/>
	<path d="M686.9,966c-0.3-0.2-0.7-0.5-1-0.6c-11.7-2.7-18-10.5-20.5-21.8c-1.7-7.5-1.5-15.1,0.6-22.6c4-14.5,16.6-22.4,31.6-20
		c11.4,1.8,18.8,8.2,21.2,18.2c0.2,0.9,0.2,1.8,0.4,3.1c-4.3,0.4-8.4,0.2-12.6,0.1c-0.5-1.1-1-2-1.3-3c-3.1-9.3-17-10.3-22.8-3.2
		c-6,7.5-6.7,25.1-0.9,32.8c3.3,4.4,7.7,6.3,13,5.7c5.3-0.6,8.9-3.6,10.7-8.6c0.3-0.9,0.7-1.7,1.1-2.8c4.1,0,8.2,0,12.7,0
		c-2,9.9-6.9,17.2-16.4,21c-1.3,0.5-2.7,1-4,1.5C694.8,966,690.9,966,686.9,966z"/>
	<path d="M521.6,488.8c-3.7-12-7.5-24-11.2-36c-31.7-101.5-63.5-203.1-95.2-304.6c-0.5-1.5-1.1-3-1-4.6c0.1-3,1.8-5,4.6-6.3
		c6.7-2.9,13.4-5.9,20.1-8.9c18.7-8.3,37.4-16.6,56.1-24.8c0.4-0.2,0.7-0.3,1.1-0.5c5.3-2.3,7.3-1.1,8.4,4.6
		c9.7,53.8,19.4,107.5,29.2,161.3c10.1,55.8,20.2,111.6,30.4,167.5c2.2,12.4,4.4,24.7,7.3,37.1c0-1.4,0.1-2.9,0-4.3
		c-1.7-20.4-3.4-40.8-5.1-61.1c-1.2-14.1-2.3-28.2-3.4-42.3c-1.4-17.4-2.9-34.7-4.4-52.1c-1.2-13.8-2.3-27.7-3.4-41.5
		c-1.5-17.8-3-35.5-4.5-53.3c-1.2-14-2.3-28-3.4-41.9c-1.5-17.6-3-35.3-4.4-52.9c-0.7-8.4-1.4-16.7-2-25.1c-0.3-5,1-6.8,6-7.4
		c8.5-1,16.9-2.1,25.4-2.6c11.2-0.6,22.5-1.2,33.8-0.8c12.4,0.4,24.8,1.9,37.2,3.1c4,0.4,5.8,2.5,5.6,6.6c-0.6,9.4-1.3,18.8-2,28.2
		c-0.9,12.2-1.9,24.3-2.8,36.5c-1.5,19.2-3,38.4-4.5,57.6c-1.1,14.8-2.2,29.5-3.4,44.3c-1.5,19.5-3,38.9-4.5,58.4
		c-1.2,15.3-2.3,30.6-3.5,45.9c-1.4,18.8-2.9,37.6-4.4,56.5c-1.1,14.6-2.2,29.3-3.3,43.9c-0.1,1.3,0,2.6,0.6,4
		c0.8-4.6,1.7-9.3,2.5-13.9c5.2-29.7,10.4-59.4,15.6-89c5.6-32.3,11.2-64.5,16.9-96.8c5.6-32.3,11.3-64.5,17-96.8
		c4-23,8-45.9,12-68.9c0.1-0.8,0.2-1.6,0.4-2.3c0.9-3.5,3.1-4.7,6.5-3.5c0.9,0.3,1.7,0.7,2.5,1.1c25.6,11.2,51.1,22.4,76.7,33.6
		c1,0.4,2,0.8,2.8,1.3c2.8,1.7,3.7,4.6,2.6,8.3c-2.8,9.3-5.7,18.5-8.6,27.8c-32,103.5-64,207-96,310.5c-0.4,1.3-0.7,2.7-0.5,4.2
		c0.6-1.4,1.3-2.8,1.9-4.2c44.3-104.3,88.6-208.7,132.9-313c0.6-1.3,1-2.7,1.7-4c1.5-2.8,3.7-3.3,6.1-1.3c0.8,0.7,1.5,1.4,2.3,2.2
		c14.2,14.2,28.3,28.4,42.6,42.5c3.7,3.7,5.2,7.3,1.9,13.3c-36.3,67.4-72.4,134.9-108.6,202.3c-14.1,26.3-28.3,52.7-42.4,79
		c-0.7,1.4-1.4,2.7-1.5,4.5c0.8-1.1,1.7-2.3,2.5-3.4c31.5-45.6,63.1-91.2,94.6-136.9c25.9-37.4,51.7-74.8,77.6-112.3
		c0.6-0.9,1.2-1.8,1.8-2.6c2.2-2.8,4.3-2.6,6,0.6c0.3,0.6,0.6,1.2,0.8,1.8c9.6,21,19.2,41.9,29,62.8c2.4,5.2,1.7,9.3-1.9,13.7
		C860.2,402.4,802,471,743.8,539.6c-1.3,1.6-2.7,3.2-4,4.8c0.2,0.2,0.4,0.4,0.5,0.6c1-0.9,2-1.7,3-2.6
		c43.8-39.8,87.5-79.6,131.3-119.4c17.8-16.1,35.5-32.3,53.3-48.4c1.4-1.2,2.6-3.5,4.9-2.4c1.9,0.9,1.7,3.1,1.9,4.9
		c1.4,14.2,2.8,28.4,4.2,42.6c1.1,11.4,0.1,22.8-0.6,34.2c-0.3,4.4-1,8.9-1.1,13.3c-0.2,5.7-2.8,9.5-7.5,12.5
		c-30.1,19.6-60.2,39.3-90.2,58.9c-57.9,37.9-115.9,75.7-173.8,113.6c-1.2,0.8-2.4,1.6-3.7,2.3c-1.7,0.8-2.8,0.1-3-1.7
		c-0.1-0.6,0.1-1.3,0.2-2c2.6-33.3-20.6-62.7-53.6-68c-35-5.6-68.6,19.5-72.8,54.7c-0.5,4.1-0.2,8.4-0.3,12.6c0,1,0.2,2.1,0,3.1
		c-0.2,1.4-1.2,2.1-2.6,1.4c-1.3-0.6-2.5-1.4-3.7-2.2c-78.9-51.7-157.7-103.3-236.5-155c-9.5-6.3-19-12.6-28.6-18.7
		c-4.4-2.8-6.8-6.6-7.1-11.9c-0.5-9.6-1.5-19.1-1.9-28.6c-0.6-12.2,0.5-24.4,1.7-36.5c0.8-8.3,1.9-16.7,2.9-25
		c0.2-1.9-0.1-4.3,2.2-5c2.1-0.6,3.2,1.3,4.6,2.5c60.7,55.3,121.4,110.5,182.1,165.8c1.3,1.2,2.7,2.4,4,3.6c0.2-0.2,0.5-0.4,0.7-0.6
		c-0.8-1-1.6-2.1-2.4-3.1c-24.5-28.9-48.9-57.9-73.4-86.8c-33.6-39.7-67.2-79.5-100.8-119.3c-1.2-1.4-2.4-2.8-3.2-4.5
		c-1.4-3-0.9-6,0.5-9.1c7.2-15.4,14.3-30.9,21.5-46.4c2.6-5.6,5.2-11.2,7.7-16.8c0.4-1,0.8-1.9,1.4-2.8c1.4-2.1,3.1-2.3,4.9-0.5
		c0.9,0.9,1.6,2.1,2.3,3.2c56.9,82.3,113.8,164.6,170.7,246.9c1.3,1.8,2.5,3.6,4.2,6c0.1-2.3-0.9-3.4-1.6-4.6
		c-17-31.8-34-63.5-51.1-95.3c-33-61.6-66-123.1-99-184.7c-0.5-0.9-1-1.8-1.5-2.8c-2.2-4.4-1.8-7.4,1.8-11
		c14.6-14.6,29.1-29.1,43.7-43.6c0.6-0.6,1.1-1.2,1.7-1.6c2.1-1.5,4-1.1,5.3,1.1c0.7,1.2,1.2,2.6,1.8,3.9
		c44.6,104.1,89.1,208.2,133.7,312.2c0.8,1.9,1.7,3.8,2.5,5.7C521.2,489,521.4,488.9,521.6,488.8z"/>
	<path d="M566.6,839.2c-7.8,0-15,0-22.7,0c0-1.5,0-2.9,0-4.3c0-16.3,0-32.5,0-48.8c0-2.5-0.2-5-0.9-7.4c-1.2-4.1-4.1-6.5-8.4-7.3
		c-9.5-1.7-16.3,3.3-17.5,12.9c-0.3,2.3-0.3,4.7-0.3,7.1c0,14.4,0,28.8,0,43.3c0,1.4,0,2.8,0,4.5c-7.6,0-14.7,0-22.4,0
		c0-1.5,0-2.9,0-4.3c0-15.5,0-30.9,0-46.4c0-3-0.3-6-0.9-9c-1-4.4-4-7.1-8.4-7.7c-2.6-0.4-5.3-0.3-7.8,0.1c-5.5,0.9-8.8,4.4-9.6,10
		c-0.4,2.7-0.5,5.5-0.6,8.2c-0.1,14.7,0,29.4,0,44c0,1.6,0,3.1,0,4.9c-7.5,0-14.6,0-21.7,0c-0.8-2.9-0.9-80.1-0.1-84.5
		c6.7,0,13.5,0,20.8,0c0,3.6,0,7.1,0,11.5c3.2-3.4,5.6-6.3,8.3-8.8c3-2.7,6.8-4.1,10.7-4.4c3.8-0.3,7.6-0.3,11.3-0.1
		c4,0.3,7.9,1.5,10.8,4.3c2.7,2.6,4.8,5.7,7.3,8.8c0.8-1.1,1.7-2.3,2.7-3.4c10.3-12.8,31.6-13.8,42.7-2.1c4.4,4.6,6.4,10.1,6.8,16.3
		c0.2,3.1,0.2,6.3,0.2,9.4c0,16.1-0.1,32.2-0.1,48.4C566.6,836,566.6,837.4,566.6,839.2z"/>
	<path d="M431.7,839.2c-9.1,0-17.3,0-25.9,0c-2.5-7.8-5.1-15.6-7.6-23.4c-14.3,0-28.3,0-42.6,0c-2.6,7.7-5.2,15.4-7.8,23.3
		c-8.2,0-16.3,0-24.3,0c0.1-2.8,37.9-109.5,40.6-114.7c8.8,0,17.7,0,27,0C404.5,762.5,418,800.6,431.7,839.2z M391.8,795.8
		c-4.8-14.9-9.5-29.5-14.3-44.5c-2.5,4.1-14.7,41.7-14.5,44.5C372.4,795.8,381.8,795.8,391.8,795.8z"/>
	<path d="M267.1,754.5c4.2,19.9,8.3,39.4,12.5,59c2.7-6.3,3.7-12.9,5.2-19.4c1.5-6.5,2.8-13.1,4.2-19.6c1.4-6.6,2.9-13.3,4.4-20
		c7.7,0,15.1,0,23,0c-8.2,28.4-16.4,56.6-24.6,84.7c-7.7,0-15.2,0-22.9,0c-2.2-10.2-4.4-20.3-6.6-30.4c-2.2-9.9-4-19.9-7.3-29.6
		c-4.4,19.9-8.7,39.8-13.1,59.9c-7.8,0-15.3,0-23.2,0c-7.9-28.1-15.8-56.2-23.8-84.6c8.1,0,15.7,0,23.8,0c4.2,19.5,8.5,39,12.7,58.5
		c0.3,0,0.6,0,0.9,0.1c1.7-6.3,2.7-12.8,4-19.2c1.4-6.5,2.7-13.1,4-19.6c1.3-6.5,2.6-13.1,4-19.7C252,754.5,259.3,754.5,267.1,754.5
		z"/>
	<path d="M936.5,763.8c0-13.3,0-26.2,0-39.3c7.7,0,14.8,0,22,0c0.8,2.8,1.1,107.3,0.3,114.7c-6.8,0.2-13.7,0.1-21,0
		c-0.2-3.5-0.3-6.8-0.5-10.7c-1.1,1.2-1.7,1.8-2.2,2.5c-6.4,8.6-15.3,11.5-25.6,10.9c-10.9-0.6-19-6-25.2-14.6c-5-7-7.3-15-7.9-23.5
		c-0.7-10.2,0.2-20.2,4.2-29.7c4.4-10.4,11.6-18,23-20.8c12.3-3,23.2-0.9,31.5,9.5C935.3,763.1,935.7,763.2,936.5,763.8z M899,797.4
		c0,5.8,0.7,11.5,3.4,16.8c2.4,4.7,6,7.8,11.3,8.9c9.6,1.9,17.2-2.1,21-11.1c2.8-6.7,3-13.8,2-20.9c-0.5-4.1-1.6-8-3.9-11.4
		c-4-6-9.7-8.6-16.8-8c-6.7,0.5-11.1,4.1-13.9,10C899.8,786.7,899,791.9,899,797.4z"/>
	<path d="M807.7,803.1c-20.9,0-41.3,0-61.7,0c-0.8,11,5.8,19.2,16.8,20.9c8,1.2,15.1-0.4,20.1-7.6c0.5-0.8,1.5-1.7,2.4-1.7
		c6.9-0.1,13.8-0.1,21-0.1c0,3.2-1.1,5.7-2.5,8c-4.3,7.3-10.2,13.1-18.2,16.1c-14.7,5.6-29.2,5-43.2-2.7
		c-9.7-5.3-15.4-13.5-17.7-24.3c-1.9-9.4-2-18.7,0-28.1c3.9-18.3,18-30.5,36.7-31.6c5.6-0.3,11.2,0,16.8,1.3
		c12.9,3.1,21.4,11,26.3,23.2C807.8,784.9,808,793.6,807.7,803.1z M784.4,788.2c-0.1-12.3-9.9-18.4-19.8-18
		c-10.4,0.4-18.4,8.6-17.7,18C759.3,788.2,771.7,788.2,784.4,788.2z"/>
	<path d="M191.2,814.6c0.1,3.6-1.2,6.1-2.6,8.4c-4.2,6.9-9.8,12.4-17.3,15.4c-15.7,6.1-31,5.4-45.6-3.5c-8.2-5-13.3-12.2-15.5-21.4
		c-2.6-10.8-2.6-21.6,0.2-32.3c4.4-16.9,18.2-28.1,35.9-29.1c5.2-0.3,10.5,0,15.6,1c16.1,3.3,27.2,15.2,29.9,31.5
		c0.5,2.7,0.7,5.5,0.9,8.2c0.1,3.1,0,6.3,0,10c-5.2,0-10.3,0.1-15.3,0.1c-5.2,0-10.5,0-15.7,0c-5.1,0-10.2,0-15.3,0
		c-5.1,0-10.2,0-15.2,0c-1.1,11.4,6.9,20.4,18.6,21.3c7.5,0.5,14-1.4,18.4-8.1c0.4-0.7,1.4-1.5,2.1-1.5
		C177.1,814.6,184,814.6,191.2,814.6z M169.6,788.1c-0.2-10.8-8.2-18.5-20.3-18c-10.1,0.5-17.8,8.4-17.4,18
		C144.3,788.1,156.8,788.1,169.6,788.1z"/>
	<path d="M997.6,781.6c-6.9,0-13.7,0-21.1,0c0.3-2.1,0.4-4,0.8-5.8c2.1-10.7,8.3-18.1,18.8-21.2c13.5-4,26.9-3.4,40,2.1
		c8.1,3.4,12.2,9.7,12.7,18.3c0.4,6.1,0.2,12.3,0.2,18.5c0,9.8,0,19.7,0.1,29.5c0,2.2,0.3,4.4,0.4,6.7c0.1,2.3,0.9,4.4,2.9,5.7
		c1.4,1,1.7,2.2,0.9,3.8c-7.8,0-15.6,0-23.8,0c-0.7-3-1.4-5.9-2.2-9.3c-1.2,1.1-2.3,2-3.3,2.9c-8.1,7.2-17.5,10.3-28.3,8.9
		c-13.9-1.7-22.6-11.9-22-25.9c0.5-12.8,6.5-21.1,18.9-24.5c7-1.9,14.4-2.6,21.6-3.9c2.7-0.5,5.4-0.9,8-1.9c3.5-1.3,4.9-3.5,4.8-6.9
		c-0.1-3.5-1.5-6.1-4.9-7.3c-5.5-1.9-11.1-2.1-16.6-0.4c-3.2,1-5.3,3.3-6.4,6.5C998.6,778.8,998.1,780.2,997.6,781.6z M1026.9,799
		c-5.4,1.2-10.4,2.3-15.3,3.5c-3.2,0.8-6.4,1.5-9.4,2.7c-5.2,2.2-7.2,7.1-6,13.1c0.9,4.5,4.7,7.4,10.1,7.7c4.3,0.2,8.3-0.9,12.1-2.9
		c4.1-2.1,6.6-5.5,7.7-9.9C1027.4,808.4,1027,803.6,1026.9,799z"/>
	<path d="M582.1,812.6c7.7,0,14.9,0,22.3,0c0.4,1.3,0.7,2.5,1,3.8c1,3.5,3.2,6,6.7,7.2c6.5,2.2,13.1,2.3,19.7,0.5
		c0.5-0.1,1-0.3,1.5-0.6c2.5-1.2,4.2-3,4.3-6c0-3.2-1.5-5.4-4.3-6.4c-4.3-1.5-8.7-2.8-13.1-4c-4.9-1.4-9.9-2.5-14.8-3.9
		c-2.8-0.8-5.4-1.9-8.1-3.1c-9.2-4.2-14.1-11.1-12.1-23.8c1.8-11.6,9.3-19,20.3-22.3c12-3.6,24.1-3,35.8,1.7
		c10.3,4.2,15.7,12.5,16.1,23.9c-2.7,0.8-16.1,0.9-21.6,0.3c-0.2-0.5-0.5-1.1-0.6-1.7c-1.1-5.2-4.5-7.8-9.4-8.8
		c-3.9-0.8-7.9-0.9-11.7,0.1c-1.9,0.5-4,1.6-5.4,2.9c-3,2.9-2.2,7.6,1.6,9.6c2,1,4.1,1.7,6.3,2.2c5.7,1.4,11.5,2.6,17.2,4.2
		c4.4,1.2,8.9,2.6,12.9,4.6c15.1,7.7,18.2,26.4,6.6,38.8c-3.8,4.2-8.6,6.9-14,8.3c-11.9,3.1-23.9,3.3-35.7-0.1
		c-10.9-3.1-18.2-10.1-20.7-21.5C582.4,816.7,582.3,814.9,582.1,812.6z"/>
	<path d="M701.7,755c4.8,0,9,0,13.5,0c0,5.3,0,10.2,0,15.6c-4.4,0-8.6,0-13.2,0c-0.1,1.5-0.3,2.6-0.3,3.8c0,13.9,0,27.8,0,41.7
		c0,0.4,0,0.8,0,1.2c0.2,5.2,1.1,6.2,6.3,6.4c2.3,0.1,4.7,0,7.2,0c0,5.6,0,10.8,0,16.2c-8,0.8-16,1.5-23.8-0.6
		c-7.9-2.1-11.5-6.5-11.6-14.7c-0.1-13.2-0.1-26.5-0.1-39.7c0-4.6,0-9.1,0-14.1c-4,0-7.6,0-11.7,0c-0.2-5.4-0.2-10.4,0-15.8
		c3.9,0,7.5,0,11.6,0c0-8,0-15.7,0-23.6c7.5,0,14.5,0,22,0C701.7,739.3,701.7,746.9,701.7,755z"/>
	<path d="M819.5,754.4c6.9,0,13.5,0,20.6,0c0,4.4,0,8.7,0,13c0.3,0.1,0.5,0.2,0.8,0.3c1.1-1.5,2.2-3,3.2-4.6
		c3.3-4.8,7.5-8.4,13.2-9.9c3.4-0.9,6.9-1.5,11-0.8c0.1,7.3,0.1,14.6-0.1,22.3c-1.5,0-2.8-0.1-4,0c-2.9,0.2-5.8,0.1-8.6,0.6
		c-8.1,1.6-12.6,6.4-13.7,14.6c-0.4,3.1-0.7,6.3-0.7,9.4c-0.1,11.8,0,23.6,0,35.4c0,1.4,0,2.8,0,4.4c-7.5,0-14.5,0-21.5,0
		C818.9,836.3,818.7,760.3,819.5,754.4z"/>
	<path d="M993.8,943.8c0-13.8,0-27.6,0-41.6c4,0,7.6,0,11.2,0c0.8,2.8,1.2,53.6,0.4,62c-3.8,0.3-7.7,0.2-11.5,0
		c-0.9-0.1-1.8-1.3-2.4-2.2c-2.4-4-4.7-8.2-7.1-12.2c-4.8-8.3-9.5-16.6-14.3-24.9c-0.6-1.1-1.4-2.2-2-3.2c-0.3,0.1-0.5,0.1-0.6,0.2
		c-0.1,0.1-0.3,0.2-0.3,0.2c0,13.9,0,27.8,0,42.1c-4.1,0.3-7.8,0.2-11.4,0c-0.8-3-1-56.1-0.3-62c4-0.6,8.2-0.4,12.3-0.1
		c0.9,0.1,1.9,1.6,2.5,2.7c6.8,11.8,13.5,23.7,20.3,35.5c0.7,1.2,1.5,2.4,2.2,3.7C993.2,943.9,993.5,943.9,993.8,943.8z"/>
	<path d="M350.7,934.9c5.7,2.6,6.9,7.5,7.2,12.8c0.1,1.4,0,2.9,0,4.3c0.1,4-0.7,8.2,3.5,12c-5.6,0.5-10.1,0.2-14.8,0.3
		c-1.5-2.6-1.6-5.5-1.7-8.3c-0.2-2.7,0-5.5-0.2-8.3c-0.4-5.5-2.4-7.6-7.8-7.8c-3.8-0.2-7.6-0.1-11.4-0.1c-0.8,0-1.6,0.1-2.8,0.2
		c0,7.9,0,15.8,0,24c-4.4,0-8.2,0-12.1,0c-0.9-2.7-1.2-55.4-0.3-61.7c0.9-0.1,1.9-0.4,2.9-0.4c8.6,0,17.3,0,25.9,0
		c2,0,3.9,0.2,5.9,0.4c12.9,1.6,19,17,11.2,27.8C354.8,931.9,352.8,933.1,350.7,934.9z M322.6,929.6c5,0,9.6,0,14.1,0
		c1.3,0,2.6-0.2,3.9-0.5c3.7-0.8,5.5-2.7,5.8-6.4c0.1-1.2,0.1-2.4-0.1-3.5c-0.4-3.5-2.2-5.5-5.6-6.2c-5.9-1.1-11.9-0.4-18.1-0.5
		C322.6,918.4,322.6,923.7,322.6,929.6z"/>
	<path d="M771.9,902.1c5.1,0,9.7,0,14.8,0c7.3,20.6,14.5,41.1,21.9,62c-4.9,0-9.3,0-13.9,0c-1.3-4-2.7-8.1-4.1-12.3
		c-7.6,0-15.2,0-23.1,0c-1.4,4.1-2.9,8.2-4.4,12.4c-4.4,0-8.5,0-13.3,0C757,943.4,764.5,922.9,771.9,902.1z M787.1,940.7
		c-2.6-8-5-15.6-7.5-23.2c-0.3,0-0.6,0-0.9,0c-2.5,7.6-5,15.2-7.7,23.2C776.5,940.7,781.4,940.7,787.1,940.7z"/>
	<path d="M429.6,964.2c-4.8,0-8.8,0-13.4,0c7.4-20.8,14.8-41.4,22.2-62c5,0,9.8,0,14.9,0c7.3,20.6,14.6,41.2,21.9,62
		c-4.8,0-9.1,0-13.9,0c-1.4-4-2.8-8.2-4.2-12.5c-7.7,0-15.3,0-23.1,0C432.5,955.9,431.1,960.1,429.6,964.2z M446.2,917.5
		c-0.3,0-0.6,0-0.9-0.1c-2.5,7.6-5,15.3-7.6,23.2c5.5,0,10.5,0,16,0C451,932.6,448.6,925,446.2,917.5z"/>
	<path d="M385.3,912.9c0,5.1,0,9.6,0,14.5c9.2,0,18.2,0,27.4,0c0,3.7,0,6.9,0,10.7c-4.6,0.2-9.1,0.1-13.6,0.1c-4.4,0-8.9,0-13.8,0
		c-0.4,8.7,0,17.2-0.3,25.9c-4.3,0-8.2,0-12.5,0c0-20.5,0-40.9,0-61.3c2.7-0.9,38.1-1.2,44-0.3c0,3.3,0,6.6,0,10.4
		c-5.4,0-10.6,0-15.8,0C395.7,912.9,390.6,912.9,385.3,912.9z"/>
	<path d="M837.1,964.1c-4.5,0-8.5,0-13,0c0-5.6-0.1-11.2-0.1-16.7c0-5.6,0-11.3,0-16.9c0-5.6,0-11.2,0-17.2
		c-6.2-1-12.4,0.2-18.6-0.7c0-3.5,0-6.8,0-10.4c16.8,0,33.4,0,50.2,0c0,3.5,0,6.7,0,10.4c-5.9,0.7-11.9-0.1-18.3,0.5
		c-0.4,4.3-0.2,8.5-0.2,12.8c0,4.2,0,8.4,0,12.6c0,4.3,0,8.6,0,13C837.1,955.6,837.1,959.7,837.1,964.1z"/>
	<path d="M729,964.1c0-20.8,0-41.2,0-61.9c4.2,0,8.2,0,12.5,0c0,20.7,0,41.2,0,61.9C737.3,964.1,733.3,964.1,729,964.1z"/>
	<path d="M862.8,901.9c3.2,0,6.1,0,9,0c1,0,2,0.2,3,0.2c0.8,3.1,1,57.2,0.2,61.9c-3.9,0-7.9,0-12.2,0
		C862.8,943.5,862.8,923,862.8,901.9z"/>
</g>
</svg>
