<?xml version="1.0" encoding="iso-8859-1"?>
<!-- Generator: Adobe Illustrator 21.1.0, SVG Export Plug-In . SVG Version: 6.00 Build 0)  -->
<svg version="1.1" id="Layer_1" xmlns="http://www.w3.org/2000/svg" xmlns:xlink="http://www.w3.org/1999/xlink" x="0px" y="0px"
	 viewBox="0 0 183.321 87.876" style="enable-background:new 0 0 183.321 87.876;" xml:space="preserve">
<g id="Laag_2" style="display:none;">
	<rect x="-19.321" y="-12.151" style="display:inline;fill:#757575;" width="217.088" height="120.253"/>
</g>
<g id="Laag_1">
	<path d="M41.593,60.459c-0.441-1.167-1.277-1.666-2.806-1.693c-0.14-0.004-7.225,0.006-7.225,0.006L21.081,87.316
		c0,0,5.097-0.002,5.1-0.002c0.441,0.031,0.852-0.035,1.216-0.202c0.995-0.453,1.483-1.607,1.626-1.997
		c-0.002,0.006,1.423-3.975,1.521-4.234c0.731-0.001,9.985-0.006,10.549-0.006c0.221,0.674,2.146,6.427,2.146,6.427h6.9
		l-4.376-13.89L41.593,60.459z M32.356,75.016c0.771-2.097,2.678-7.409,3.492-9.555c0.702,2.169,3.596,9.482,3.618,9.552
		C38.42,75.013,32.77,75.015,32.356,75.016z M91.279,58.543h-0.002c-8.168,0.012-14.096,6.143-14.096,14.575
		c0,8.26,6.06,14.491,14.098,14.491c8.039,0,14.339-6.365,14.339-14.491C105.619,64.945,99.318,58.543,91.279,58.543z
		 M91.484,81.242c-4.163,0-7.425-3.602-7.425-8.2c0-4.559,3.191-7.995,7.424-7.995c4.196,0,7.241,3.361,7.241,7.995
		C98.724,77.717,95.611,81.242,91.484,81.242z M124.099,70.557l-0.266-0.077c0.008,0.003-2.658-0.811-2.664-0.812l-0.398-0.146
		c-2.174-0.787-3.721-1.445-3.721-2.711c0-0.031,0.002-0.062,0.002-0.094c0.211-2.101,4.117-2.126,4.156-2.126
		c2.15,0,3.805,0.329,5.902,1.172l0.047,0.019l0.088,0.025c0.484,0.101,0.904,0.112,1.25,0.036l0.58-0.219
		c0.83-0.461,1.66-2.886,1.98-3.908l0.102-0.329l-0.256-0.236c-0.102-0.093-0.717-0.597-2.932-1.424
		c-2.258-0.844-5.457-0.979-5.457-0.979l-1.578-0.007c-8.238,0-11.385,5.084-11.484,8.5c-0.07,3.403,1.867,5.156,4.797,6.742
		c1.227,0.684,3.455,1.303,5.084,1.757c-0.01-0.002,1.678,0.492,1.678,0.492c3.072,0.965,4.24,2.035,4.025,3.696
		c-0.098,0.551-1.135,1.459-3.494,1.459c-1.789,0-3.41-0.274-5.098-0.865c-0.812-0.32-1.648-0.736-2.537-1.261l-0.045-0.025
		l-0.084-0.039c-0.492-0.182-0.932-0.262-1.309-0.232l-0.648,0.142c-0.939,0.354-2.262,2.757-2.787,3.773l-0.205,0.399l0.357,0.282
		c0.061,0.049,1.527,1.21,2.77,1.937c1.461,0.811,3.111,1.395,5.053,1.791c0.781,0.145,2.023,0.324,3.973,0.324
		c6.381,0,11.023-3.234,11.557-8.051C132.769,75.192,130.09,72.341,124.099,70.557z M135.293,59.572
		c-0.369,0.34-0.562,0.79-0.562,1.303l-0.004,4.513c0,0,7.703-0.002,8.711-0.002c0,1.061,0.004,21.94,0.004,21.94l7.133-0.006
		c0,0,0-20.878,0-21.938c0.949-0.001,5.607-0.002,5.607-0.002c0.268,0.001,1.656-0.027,2.457-0.769
		c0.367-0.342,0.562-0.791,0.562-1.303v-4.502l-21.449-0.002C137.482,58.802,136.095,58.831,135.293,59.572z M15.336,80.863
		c0,0-5.991,0-8.012,0c0-1.053-0.021-19.453-0.021-19.453c0-0.809-0.244-1.447-0.729-1.899c-0.779-0.726-1.931-0.719-2.365-0.716
		L0,58.79l0.013,28.52l17.859,0.001l0.013-4.532C17.885,82.203,17.636,80.863,15.336,80.863z M66.4,64.868
		c1.731-0.113,3.187,0.006,4.564,0.377c0.735,0.248,1.401,0.296,1.967,0.138c0.002-0.001,0.573-0.252,0.573-0.252
		c0.794-0.496,1.367-2.999,1.636-4.446l0.064-0.342l-0.29-0.206c-0.074-0.054-0.299-0.215-2.886-0.909
		c-2.358-0.634-4.452-0.714-5.489-0.707l-0.11,0.001c-5.915,0-14.812,3.901-15.07,14.648v0.057
		c0.258,10.747,9.155,14.647,15.074,14.647c-0.001,0,0.109,0.001,0.109,0.001c1.033,0.009,3.125-0.071,5.486-0.706
		c2.587-0.695,2.812-0.857,2.888-0.908l0.288-0.208l-0.064-0.342c-0.269-1.448-0.842-3.949-1.636-4.446l-0.003-0.001l-0.568-0.251
		c-0.567-0.156-1.233-0.108-1.983,0.142c-1.363,0.367-2.819,0.487-4.569,0.373c-4.476-0.437-7.17-3.481-7.368-8.352
		C59.209,68.35,61.903,65.306,66.4,64.868z M183.3,80.855l-12.576,0.006c0,0,0.018-4.107,0.022-4.785
		c1.025,0,10.383,0.001,10.383,0.001l-0.018-6.599c0,0-9.322,0.013-10.348,0.013c-0.006-0.782,0-3.316-0.002-4.104
		c1.029,0,9.527-0.008,9.527-0.008c0.266,0.002,1.686,0.003,2.457-0.769c0.541-0.539,0.564-1.521,0.564-2.032v-3.764l-19.787-0.002
		l0.01,28.512l16.812-0.023c1.103-0.022,2.977-0.675,2.977-2.866L183.3,80.855z M79.01,52.347c0.851,2.04,2.115,0.089,2.115,0.089
		s0.804-1.643,1.49-0.735c1.168,1.547,1.707,0.771,1.972-0.211c0.287-1.06,0.709-1.523,1.928-0.234
		c0.52,0.558,1.541,0.128,1.642-0.832c0.213-2.1,1.629-0.432,1.834-0.347c0.241,0.096,1.722-0.246,0.896-2.614
		c0,0-1.124-2.261-6.167-3.239c-1.187-0.23-0.999-1.093-0.999-1.093l1.117,0.158c0.329,0.06,3.265,0.382,3.58,0.435
		c12.304,1.221,21.642-2.976,21.923-3.275h0.002c9.561,1.84,22.561,1.209,25.002,0.327c2.445-0.876,2.631-2.308,2.344-2.69
		c-0.359-0.478-0.945-0.669-1.35-0.854c-0.4-0.186-0.338-0.576-0.672-0.684c-0.334-0.107-0.93,0.582-1.389,0.434
		s-0.424-1.016-0.811-1.141c-0.393-0.126-1.08,0.526-1.438,0.412c-0.359-0.115-0.43-1.02-0.775-1.13
		c-0.346-0.111-1.076,0.542-1.434,0.427c-0.359-0.116-0.379-1.004-0.773-1.13c-0.398-0.128-1.088,0.532-1.439,0.418
		c-0.354-0.113-0.385-1.004-0.77-1.128c-0.383-0.123-1.084,0.526-1.441,0.412c-0.359-0.116-0.463-1.024-0.795-1.131
		c-0.334-0.107-1,0.431-1.535,0.398c-3.734-0.354-5.162-2.712-5.414-2.02c-0.25,0.688,0.775,2.354,2.07,2.919
		c1.025,0.445,12.148,3.542,12.439,3.683c0.287,0.141,0.98,0.459,0.74,0.864c-0.391,0.518-1.479,0.004-1.75-0.223
		c-0.283-0.239-0.221-0.324-0.484-0.389c-0.592-0.147-0.922,0.949-1.551,0.801c-0.576-0.134-0.539-1.291-1.117-1.426
		c-0.643-0.151-0.939,0.946-1.551,0.802c-0.504-0.118-0.574-1.304-1.115-1.43c-0.633-0.147-0.916,0.951-1.564,0.8
		c-0.561-0.131-0.531-1.29-1.115-1.427c-0.586-0.138-0.996,0.933-1.549,0.803c-0.555-0.13-0.631-1.309-1.131-1.426
		c-0.498-0.117-0.9,0.489-1.58,0.573c0,0-1.941,0.531-5.016-2.697c-3.084-3.229-4.35-3.853-6.102-2.542
		c-2.869,2.145-4.643,0.724-5.166,0.091c-0.615-0.735,0.033-1.405,0.033-1.405s0.912,1.409,2.055,1.442
		c1.842,0.056,3.236-2.482,6.398-2.523c4.002-0.146,5.049,1.284,6.141,1.395c1.018,0.102,1.354-0.062,2.055-0.47
		c0.568-0.207,1.061,0.897,1.656,0.673c0.627-0.238,0.166-1.345,0.848-1.602c0.631-0.236,1.045,0.888,1.65,0.663
		c0.641-0.238,0.232-1.379,0.842-1.598c0.633-0.229,1,0.897,1.656,0.659c0.656-0.238,0.229-1.367,0.832-1.596
		c0.611-0.229,1.061,0.887,1.66,0.667c0.576-0.211,0.25-1.39,0.842-1.606c0.621-0.225,1.023,0.89,1.688,0.651
		c0.539-0.196,0.242-1.381,0.803-1.592c0.568-0.215,1.088,0.887,1.676,0.665c0.551-0.206,0.225-1.382,0.812-1.599
		c0.619-0.23,1.098,0.872,1.68,0.662c0.574-0.206,0.143-1.164,0.896-1.531c0,0,1.045-0.353,0.982-1.124
		c-0.012-0.127-0.23-1.782-1.953-2.128c-1.652-0.333-14.738,3.307-14.9,3.094c-1.207-2.39-2.752-1.725-2.986-1.675
		c-0.24,0.058-1.697,0.693-3.318,0.066c-3.176-1.448-5.713,2.229-7.447,1.743c-1.607-0.45-2.83-0.194-3.502,0.037
		c-0.617,0.213-1.611,1.019-3.725,0.291c-16.333-5.612-29.102-0.706-29.102-0.706c-7.198,2.415-8.121,0.001-8.121,0.001
		s-2.363-3.239,14.311-7.095c23.972-5.544,24.693-14.71,24.415-15.285c-0.4-0.842-0.547,0.147-1.34,1.06
		c-0.656,0.758-1.426,0.382-1.426,0.382c-0.756-0.364-1.234,0.507-1.234,0.507s-0.977,1.509-1.834,0.651
		c-0.822-0.825-1.924,1.043-2.33,1.115c-0.486,0.088-0.724-0.153-1.386-0.452c-0.984-0.443-2.04,1.368-2.58,1.49
		c-0.832,0.189-1.413-0.982-2.119-0.491c-2.134,1.481-2.471,1.694-3.042,1.111c-0.426-0.434-0.485-0.904-1.906,0.465
		C80.576,7.325,80,7.538,79.509,6.8c-0.501-0.747-0.369-1.767-2.448,0.241c-0.994,0.958-1.503,0.976-2.072,0.544
		c-0.427-0.321-0.422-1.865-1.921-0.468c-1.351,1.259-2.336,1.812-2.715,0.691c-0.425-1.253-2.017,0.229-2.389,0.58
		c-0.377,0.353-1.198,1.276-1.773,0.318c-0.577-0.952-1.95,0.479-2.766,1.389c-0.634,0.703-1.147,0.161-1.806-0.288
		c-0.761-0.522-3.02,2.656-3.228,2.846c-0.206,0.185-0.364,0.006-0.883-0.436c-0.799-0.681-2.95,3.089-3.294,3.337
		c0,0-0.152,0.326-0.737-0.233c-0.83-0.797-5.265,5.06-6.935,11.7c-2.137,8.508,1.27,15.022,1.27,15.022s1.021,0.031,1.46-0.667
		l0.664-1.503c0.536-1.248,1.412-0.854,1.412-0.854l-2.084,6.248c-0.325,0.824-0.129,1.988,0.597,3.093
		c0.687,1.105,1.164,1.852,1.716,2.37c1.698,1.608,1.524-0.291,1.569-0.529c0.196-1.021,1.317-0.241,2.192,0.252
		c1.596,0.899,1.421-1.09,1.768-1.741c0.241-0.46,1.03-0.483,1.881,0.234c0.663,0.558,1.323-1.328,1.323-1.328
		c0.823-4.02-1.116-4.493-2.168-4.543l-2.127-0.102c0,0,0.143-0.609,0.358-1.188l0.099-0.398c2.317-5.816-1.558-6.942-2.72-6.844
		c-1.276,0.11-1.187-0.71-1.187-0.71s7.005-1.381,5.7,6.089c0,0-0.26,1.299-0.415,1.979l1.924,0.226
		c1.661,0.207,1.955,2.18,1.955,2.18s6.091,1.616,9.545,0.969c0,0,1.552-0.369,1.977-1.334c0,0,2.238-5.305,8.775-5.529
		c0,0,0.232,0.691-0.815,1.042c-1.257,0.424-5.42,0.762-6.288,5.581l-0.004,0.018c-0.096,0.787,0.118,2.475,1.825,3.254
		C78.197,48.97,78.71,51.629,79.01,52.347z M117.953,22.733c0.201-0.323,0.391-0.505,0.564-0.593c0.74-0.418,1.215,0.91,1.123,0.959
		c-0.004,0.002-0.021,0.008-0.027,0.011c-0.002,0-0.002,0.005-0.004,0.006c-0.113,0.06-1.549,0.463-1.689,0.366
		C117.636,23.287,117.953,22.733,117.953,22.733z M112.517,23.161c0,0,0.111-0.14,0.328-0.258c0.332-0.194,0.941-0.351,1.807,0.209
		c0.811,0.522,0.787,0.924,0.787,0.924c-0.01,0.005-0.021,0.01-0.031,0.013v0.003c-0.461,0.23-3.068,0.556-3.068,0.556
		C111.865,23.73,112.517,23.161,112.517,23.161z M96.691,26.76c0.414,0.31,0.021,2.125-0.27,1.859l-2.082-1.113
		C94.34,27.506,96.279,26.452,96.691,26.76z M93.441,22.589c0.41,0.306,0.02,2.116-0.27,1.859l-2.085-1.113
		C91.086,23.335,93.027,22.281,93.441,22.589z M92.65,26.035c0.414,0.307,0.02,2.122-0.27,1.855l-2.083-1.113
		C90.298,26.777,92.235,25.726,92.65,26.035z M91.913,29.396c0.415,0.309,0.025,2.12-0.27,1.861l-2.084-1.118
		C89.56,30.139,91.5,29.087,91.913,29.396z M89.288,21.845c0.413,0.309,0.021,2.121-0.27,1.859l-2.081-1.111
		C86.938,22.593,88.878,21.539,89.288,21.845z M88.499,25.402c0.412,0.309,0.024,2.119-0.27,1.859l-2.079-1.118
		C86.151,26.143,88.089,25.094,88.499,25.402z M87.83,28.873c0.415,0.31,0.026,2.119-0.266,1.861l-2.086-1.117
		C85.479,29.617,87.419,28.565,87.83,28.873z M84.961,21.537c0.413,0.308,0.02,2.12-0.269,1.856l-2.086-1.114
		C82.607,22.279,84.548,21.222,84.961,21.537z M84.181,25.196c0.408,0.308,0.019,2.12-0.27,1.859l-2.084-1.11
		C81.826,25.945,83.768,24.887,84.181,25.196z M67.455,11.4c0.41,0.314,0.02,2.126-0.268,1.861l-2.086-1.112
		C65.102,12.149,67.04,11.099,67.455,11.4z M64.067,12.558c0.41,0.307,0.023,2.124-0.265,1.856l-2.084-1.112
		C61.718,13.302,63.655,12.249,64.067,12.558z M62.891,16.106c0.41,0.31,0.021,2.123-0.27,1.859l-2.081-1.116
		C60.54,16.849,62.477,15.796,62.891,16.106z M60.902,20.861l-2.085-1.116c0,0,1.941-1.055,2.352-0.747
		C61.583,19.308,61.19,21.124,60.902,20.861z M60.511,24.446l-2.078-1.113c0,0,1.938-1.056,2.35-0.745
		C61.193,22.892,60.805,24.707,60.511,24.446z M60.474,13.82c0.413,0.309,0.021,2.116-0.267,1.863l-2.084-1.119
		C58.123,14.564,60.064,13.513,60.474,13.82z M58.663,16.581c0.413,0.308,0.024,2.12-0.266,1.859l-2.084-1.114
		C56.314,17.327,58.253,16.272,58.663,16.581z M54.947,20.918c0,0,1.939-1.058,2.35-0.747c0.414,0.31,0.023,2.12-0.267,1.858
		L54.947,20.918z M56.545,25.456l-2.079-1.113c0,0,1.939-1.056,2.347-0.746C57.227,23.907,56.837,25.715,56.545,25.456z
		 M55.06,17.838c0.411,0.308,0.021,2.122-0.271,1.859l-2.078-1.116C52.71,18.581,54.647,17.527,55.06,17.838z M53.187,21.498
		c0.411,0.308,0.02,2.125-0.271,1.862l-2.08-1.116C50.835,22.245,52.773,21.195,53.187,21.498z M50.442,25.83
		c0,0,1.941-1.053,2.353-0.743c0.414,0.306,0.023,2.12-0.267,1.859L50.442,25.83z M54.161,29.919l-2.081-1.116
		c0,0,1.941-1.053,2.35-0.744C54.845,28.367,54.453,30.178,54.161,29.919z M57.148,32.359l-2.083-1.117c0,0,1.941-1.055,2.354-0.747
		C57.829,30.802,57.438,32.618,57.148,32.359z M58.081,28.555l-2.084-1.116c0,0,1.939-1.053,2.355-0.748
		C58.765,27,58.372,28.812,58.081,28.555z M60.853,33.991l-2.078-1.111c0,0,1.933-1.056,2.347-0.748
		C61.533,32.44,61.148,34.252,60.853,33.991z M61.85,30.5l-2.077-1.116c0,0,1.937-1.053,2.348-0.743
		C62.531,28.948,62.144,30.763,61.85,30.5z M62.54,27.19l-2.08-1.113c0,0,1.937-1.052,2.352-0.748
		C63.223,25.642,62.83,27.455,62.54,27.19z M65.469,33.568l-2.082-1.116c0,0,1.939-1.05,2.353-0.746
		C66.155,32.014,65.76,33.832,65.469,33.568z M66.368,30.085l-2.08-1.113c0,0,1.939-1.055,2.351-0.744
		C67.051,28.534,66.658,30.347,66.368,30.085z M67.124,26.4l-2.081-1.116c0,0,1.936-1.047,2.349-0.744
		C67.804,24.85,67.412,26.663,67.124,26.4z M70.047,32.916l-2.083-1.113c0,0,1.937-1.054,2.351-0.745
		C70.728,31.368,70.334,33.18,70.047,32.916z M70.748,29.192l-2.082-1.116c0,0,1.939-1.052,2.353-0.747
		C71.427,27.637,71.04,29.449,70.748,29.192z M71.471,25.372l-2.078-1.118c0,0,1.935-1.051,2.35-0.743
		C72.154,23.82,71.765,25.631,71.471,25.372z M74.603,31.448l-2.084-1.111c0,0,1.94-1.055,2.352-0.747
		C75.285,29.899,74.896,31.714,74.603,31.448z M75.17,27.777l-2.083-1.111c0,0,1.939-1.056,2.353-0.751
		C75.855,26.228,75.461,28.041,75.17,27.777z M75.895,24.183l-2.083-1.114c0,0,1.939-1.054,2.352-0.749
		C76.573,22.631,76.186,24.446,75.895,24.183z M79.086,30.666l-2.084-1.114c0,0,1.936-1.055,2.352-0.744
		C79.768,29.115,79.376,30.926,79.086,30.666z M79.651,27.242l-2.082-1.111c0,0,1.94-1.058,2.352-0.746
		C80.332,25.692,79.943,27.502,79.651,27.242z M80.336,23.586l-2.08-1.113c0,0,1.936-1.056,2.348-0.747
		C81.021,22.038,80.63,23.847,80.336,23.586z M81.146,29.62c0,0,1.939-1.055,2.351-0.747c0.412,0.311,0.022,2.123-0.271,1.859
		L81.146,29.62z"/>
</g>
</svg>
