<?xml version="1.0" encoding="iso-8859-1"?>
<!-- Generator: Adobe Illustrator 21.1.0, SVG Export Plug-In . SVG Version: 6.00 Build 0)  -->
<svg version="1.1" id="Layer_1" xmlns="http://www.w3.org/2000/svg" xmlns:xlink="http://www.w3.org/1999/xlink" x="0px" y="0px"
	 viewBox="0 0 248.966 248.968" style="enable-background:new 0 0 248.966 248.968;" xml:space="preserve">
<path d="M57.616,160.993c-1.956,0-3.45,1.539-3.45,3.541c0,2.044,1.494,3.585,3.45,3.585c1.935,0,3.429-1.541,3.429-3.585
	C61.045,162.532,59.55,160.993,57.616,160.993z M58.879,166.991l-1.327-2.099h-0.805v2.099h-0.761v-4.88h1.888
	c1.16,0,1.709,0.46,1.709,1.397c0,0.88-0.559,1.249-1.284,1.329l1.395,2.154H58.879z M94.199,146.821l-3.491,10.766h6.936
	l-3.38-10.766H94.199z M66.722,133.786c3.072,0,7.391-1.897,7.391-9.518c0-7.617-4.319-9.518-7.391-9.518
	c-3.065,0-7.394,1.901-7.394,9.518C59.328,131.889,63.657,133.786,66.722,133.786z M98.824,118.921c0-1.436-0.658-3.556-3.982-3.556
	h-7.093v7.277h6.678C97.383,122.642,98.824,121.615,98.824,118.921z M58.824,163.471c0-0.645-0.561-0.746-1.074-0.746h-1.003v1.553
	h0.793C58.212,164.278,58.824,164.241,58.824,163.471z M0,0v248.968h248.966V0H0z M130.197,110.654h5.681v10.306h10.614v-10.306
	h5.692v27.224h-5.692v-12.204h-10.614v12.204h-5.681V110.654z M108.176,80.628h5.688v10.327h10.612V80.628h5.696v27.232h-5.696
	V95.645h-10.612v12.215h-5.688V80.628z M106.01,115.465v-4.811h22.137v4.811h-8.216v22.413h-5.684v-22.413H106.01z M84.014,80.628
	h22.145v4.821h-8.228v22.411h-5.682V85.449h-8.235V80.628z M82.168,110.654h13.774c7.243,0,8.562,5.347,8.562,7.702
	c0,2.997-1.522,5.579-4.212,6.489c2.236,0.981,3.452,1.812,3.452,6.893c0,3.984,0,4.972,1.217,5.426v0.714h-6.302
	c-0.374-1.275-0.602-2.688-0.602-5.489c0-3.718-0.22-5.155-4.441-5.155h-5.867v10.643h-5.581L82.168,110.654L82.168,110.654z
	 M66.722,109.932c3.605,0,13.083,1.558,13.083,14.335c0,12.768-9.479,14.327-13.083,14.327c-3.598,0-13.09-1.559-13.09-14.327
	C53.632,111.49,63.124,109.932,66.722,109.932z M51.052,137.878h-5.684L34.26,118.469h-0.077v19.409h-5.314v-27.224h5.99
	l10.797,18.954h0.09v-18.954h5.306L51.052,137.878L51.052,137.878z M57.616,168.733c-2.29,0-4.212-1.797-4.212-4.199
	c0-2.357,1.922-4.155,4.212-4.155c2.283,0,4.191,1.799,4.191,4.155C61.807,166.936,59.899,168.733,57.616,168.733z M71.046,167.897
	h-5.68v-27.223h19.366v4.82H71.046v6.144h11.977v4.816H71.046V167.897z M100.974,167.897l-1.743-5.608H89.185l-1.896,5.608h-5.992
	l9.708-27.223h6.56l9.59,27.223L100.974,167.897L100.974,167.897z M118.598,163.792c3.145,0,5.348-1.787,6.023-5.118h5.686
	c-1.138,5.912-4.996,10.039-11.83,10.039c-7.239,0-12.437-4.874-12.437-14.288c0-9.516,5.492-14.373,12.527-14.373
	c8.143,0,11.433,5.619,11.739,9.631h-5.686c-0.447-1.628-1.33-4.699-6.023-4.699c-2.732,0-6.76,1.82-6.76,9.515
	C111.838,159.387,113.783,163.792,118.598,163.792z M152.189,145.495h-14.297v5.723h12.599v4.812h-12.599v7.059h14.293v4.809
	h-19.593v-27.223h19.597V145.495z M152.189,85.449h-14.297v5.723h12.599v4.818h-12.599v7.058h14.293v4.812h-19.593V80.628h19.597
	V85.449z M169.441,167.897h-13.059v-27.223h1.252c6.525,0,11.807,5.279,11.807,11.811V167.897z M191.821,167.897h-19.588v-15.412
	c0-8.074-6.532-14.607-14.6-14.607h-1.252v-27.224h1.279c18.832,0.027,34.085,15.236,34.16,34.054v23.189H191.821z M220.735,167.897
	h-26.119v-23.51c-0.246-20.23-16.695-36.527-36.982-36.527h-1.252V80.628h1.252c34.875,0,63.102,28.226,63.102,63.107
	L220.735,167.897L220.735,167.897z"/>
</svg>
